# xmcd CD database file
#
# Track frame offsets:
#	150
#	22545
#	40592
#	62945
#
# Disc length: 1077 seconds
#
# Revision: 0
# Processed by: cddbd v1.5.2PL0 Copyright (c) Steve Scherf et al.
# Submitted via: CDex 1.70beta3
#
DISCID=23043304
DTITLE=Kang Susie - 勇気をください
DYEAR=1996
DGENRE=New Age
TTITLE0=勇気をください
TTITLE1=大切なもの
TTITLE2=勇気をください(karaoke)
TTITLE3=大切なもの(karaoke)
EXTD=YEAR: 1996
EXTT0=
EXTT1=
EXTT2=
EXTT3=
PLAYORDER=
